<svg width="401" height="555" viewBox="0 0 401 555" fill="none" xmlns="http://www.w3.org/2000/svg">
<g opacity="0.7">
<path d="M384.494 209.676C386.818 209.777 389.095 210.362 391.18 211.393C393.265 212.423 395.113 213.878 396.605 215.662C398.097 217.447 399.2 219.523 399.845 221.758C400.489 223.993 400.661 226.338 400.349 228.643C395.55 264.062 381.385 297.558 359.317 325.675C337.25 353.792 308.078 375.509 274.814 388.587C241.549 401.664 205.398 405.627 170.091 400.067C134.783 394.506 101.599 379.624 73.9644 356.956C72.166 355.481 70.6948 353.647 69.6448 351.571C68.5947 349.496 67.9888 347.224 67.8658 344.901C67.7428 342.578 68.1054 340.255 68.9303 338.08C69.7553 335.906 71.0246 333.927 72.6572 332.27L153.417 250.308C156.046 247.64 159.494 245.931 163.209 245.455C166.924 244.978 170.692 245.761 173.909 247.679C180.933 251.867 188.822 254.39 196.973 255.056C205.123 255.722 213.318 254.513 220.928 251.521C228.539 248.529 235.363 243.834 240.878 237.796C246.393 231.758 250.452 224.537 252.743 216.687C253.793 213.091 256.018 209.952 259.063 207.771C262.108 205.59 265.797 204.493 269.539 204.657L384.494 209.676Z" fill="#F9F400"/>
<path d="M61.7652 320.557C59.9944 322.065 57.9286 323.188 55.6997 323.853C53.4708 324.518 51.1276 324.712 48.8198 324.421C46.512 324.13 44.2901 323.361 42.2961 322.163C40.302 320.966 38.5795 319.365 37.2384 317.465C8.05173 276.101 -4.43692 225.24 2.27196 175.063C8.98083 124.885 34.3923 79.0916 73.4204 46.8483C75.2136 45.3668 77.296 44.2753 79.5346 43.6436C81.7733 43.0119 84.119 42.8538 86.4222 43.1794C88.7254 43.505 90.9354 44.307 92.9112 45.5345C94.8871 46.7619 96.5854 48.3878 97.8977 50.3083L162.816 145.311C164.929 148.403 165.944 152.115 165.698 155.853C165.452 159.59 163.959 163.137 161.459 165.926C154.279 173.934 149.676 183.919 148.251 194.58C146.825 205.241 148.643 216.085 153.467 225.698C155.147 229.046 155.656 232.86 154.911 236.531C154.167 240.202 152.213 243.517 149.361 245.946L61.7652 320.557Z" fill="#2CA69E"/>
<path d="M111.484 41.8697C110.344 39.8421 109.639 37.5991 109.415 35.2839C109.19 32.9687 109.451 30.6321 110.179 28.4232C110.908 26.2143 112.09 24.1816 113.648 22.4547C115.207 20.7279 117.108 19.3449 119.231 18.394C154.052 2.79548 192.597 -2.56076 230.352 2.95229C268.107 8.46534 303.511 24.6195 332.418 49.5238C334.18 51.042 335.607 52.9109 336.606 55.0113C337.606 57.1117 338.157 59.3973 338.223 61.7224C338.29 64.0476 337.872 66.3611 336.994 68.5154C336.117 70.6697 334.8 72.6175 333.128 74.2345L250.411 154.221C247.719 156.824 244.231 158.45 240.505 158.836C236.78 159.223 233.032 158.349 229.862 156.353C223.543 152.376 216.461 149.763 209.072 148.684C201.683 147.606 194.15 148.084 186.957 150.088C183.349 151.094 179.508 150.86 176.048 149.424C172.589 147.988 169.711 145.433 167.876 142.169L111.484 41.8697Z" fill="#CD4356"/>
<path d="M343.734 86.2056C345.541 84.7405 347.633 83.6681 349.877 83.0569C352.122 82.4457 354.469 82.309 356.769 82.6556C359.069 83.0022 361.272 83.8245 363.236 85.0699C365.201 86.3154 366.884 87.9567 368.179 89.8892C385.231 115.34 396.235 144.355 400.348 174.713C400.661 177.018 400.489 179.363 399.844 181.598C399.2 183.833 398.097 185.909 396.605 187.694C395.113 189.479 393.265 190.933 391.18 191.963C389.095 192.994 386.818 193.579 384.494 193.68L269.539 198.7C265.797 198.863 262.108 197.766 259.063 195.585C256.018 193.404 253.793 190.265 252.743 186.669C251.958 183.979 250.963 181.355 249.767 178.82C248.168 175.433 247.752 171.607 248.585 167.956C249.418 164.304 251.451 161.037 254.361 158.678L343.734 86.2056Z" fill="#F9F400"/>
</g>
<rect x="56" y="434.512" width="23" height="23" rx="11.5" fill="#F9F400"/>
<path d="M101.895 447.936H98.0957V446.402H101.895C102.63 446.402 103.226 446.285 103.682 446.051C104.137 445.816 104.469 445.491 104.678 445.074C104.893 444.658 105 444.182 105 443.648C105 443.16 104.893 442.701 104.678 442.271C104.469 441.842 104.137 441.497 103.682 441.236C103.226 440.969 102.63 440.836 101.895 440.836H98.5352V453.512H96.6504V439.293H101.895C102.969 439.293 103.877 439.479 104.619 439.85C105.361 440.221 105.924 440.735 106.309 441.393C106.693 442.044 106.885 442.789 106.885 443.629C106.885 444.54 106.693 445.318 106.309 445.963C105.924 446.607 105.361 447.099 104.619 447.438C103.877 447.77 102.969 447.936 101.895 447.936ZM115.459 451.07V442.945H117.275V453.512H115.547L115.459 451.07ZM115.801 448.844L116.553 448.824C116.553 449.527 116.478 450.178 116.328 450.777C116.185 451.37 115.951 451.884 115.625 452.32C115.299 452.757 114.873 453.098 114.346 453.346C113.818 453.587 113.177 453.707 112.422 453.707C111.908 453.707 111.436 453.632 111.006 453.482C110.583 453.333 110.218 453.102 109.912 452.789C109.606 452.477 109.368 452.07 109.199 451.568C109.036 451.067 108.955 450.465 108.955 449.762V442.945H110.762V449.781C110.762 450.257 110.814 450.65 110.918 450.963C111.029 451.269 111.175 451.513 111.357 451.695C111.546 451.871 111.755 451.995 111.982 452.066C112.217 452.138 112.458 452.174 112.705 452.174C113.473 452.174 114.082 452.027 114.531 451.734C114.98 451.435 115.303 451.035 115.498 450.533C115.7 450.025 115.801 449.462 115.801 448.844ZM120.02 438.512H121.836V451.461L121.68 453.512H120.02V438.512ZM128.975 448.141V448.346C128.975 449.114 128.883 449.827 128.701 450.484C128.519 451.135 128.252 451.702 127.9 452.184C127.549 452.665 127.119 453.04 126.611 453.307C126.104 453.574 125.521 453.707 124.863 453.707C124.193 453.707 123.604 453.593 123.096 453.365C122.594 453.131 122.171 452.796 121.826 452.359C121.481 451.923 121.204 451.396 120.996 450.777C120.794 450.159 120.654 449.462 120.576 448.688V447.789C120.654 447.008 120.794 446.308 120.996 445.689C121.204 445.071 121.481 444.544 121.826 444.107C122.171 443.665 122.594 443.329 123.096 443.102C123.597 442.867 124.18 442.75 124.844 442.75C125.508 442.75 126.097 442.88 126.611 443.141C127.126 443.395 127.555 443.759 127.9 444.234C128.252 444.71 128.519 445.279 128.701 445.943C128.883 446.601 128.975 447.333 128.975 448.141ZM127.158 448.346V448.141C127.158 447.613 127.109 447.118 127.012 446.656C126.914 446.188 126.758 445.777 126.543 445.426C126.328 445.068 126.045 444.788 125.693 444.586C125.342 444.378 124.909 444.273 124.395 444.273C123.939 444.273 123.542 444.352 123.203 444.508C122.871 444.664 122.588 444.876 122.354 445.143C122.119 445.403 121.927 445.702 121.777 446.041C121.634 446.373 121.527 446.718 121.455 447.076V449.43C121.559 449.885 121.729 450.325 121.963 450.748C122.204 451.165 122.523 451.507 122.92 451.773C123.324 452.04 123.822 452.174 124.414 452.174C124.902 452.174 125.319 452.076 125.664 451.881C126.016 451.679 126.299 451.402 126.514 451.051C126.735 450.699 126.898 450.292 127.002 449.83C127.106 449.368 127.158 448.873 127.158 448.346ZM133.223 438.512V453.512H131.406V438.512H133.223ZM138.086 442.945V453.512H136.27V442.945H138.086ZM136.133 440.143C136.133 439.85 136.221 439.602 136.396 439.4C136.579 439.199 136.846 439.098 137.197 439.098C137.542 439.098 137.806 439.199 137.988 439.4C138.177 439.602 138.271 439.85 138.271 440.143C138.271 440.423 138.177 440.663 137.988 440.865C137.806 441.061 137.542 441.158 137.197 441.158C136.846 441.158 136.579 441.061 136.396 440.865C136.221 440.663 136.133 440.423 136.133 440.143ZM145.215 452.223C145.645 452.223 146.042 452.135 146.406 451.959C146.771 451.783 147.07 451.542 147.305 451.236C147.539 450.924 147.673 450.569 147.705 450.172H149.424C149.391 450.797 149.18 451.38 148.789 451.92C148.405 452.454 147.9 452.887 147.275 453.219C146.65 453.544 145.964 453.707 145.215 453.707C144.421 453.707 143.727 453.567 143.135 453.287C142.549 453.007 142.061 452.623 141.67 452.135C141.286 451.646 140.996 451.087 140.801 450.455C140.612 449.817 140.518 449.143 140.518 448.434V448.023C140.518 447.314 140.612 446.643 140.801 446.012C140.996 445.374 141.286 444.811 141.67 444.322C142.061 443.834 142.549 443.45 143.135 443.17C143.727 442.89 144.421 442.75 145.215 442.75C146.042 442.75 146.764 442.919 147.383 443.258C148.001 443.59 148.486 444.046 148.838 444.625C149.196 445.198 149.391 445.849 149.424 446.578H147.705C147.673 446.142 147.549 445.748 147.334 445.396C147.126 445.045 146.839 444.765 146.475 444.557C146.117 444.342 145.697 444.234 145.215 444.234C144.661 444.234 144.196 444.345 143.818 444.566C143.447 444.781 143.151 445.074 142.93 445.445C142.715 445.81 142.559 446.217 142.461 446.666C142.37 447.109 142.324 447.561 142.324 448.023V448.434C142.324 448.896 142.37 449.352 142.461 449.801C142.552 450.25 142.705 450.657 142.92 451.021C143.141 451.386 143.438 451.679 143.809 451.9C144.186 452.115 144.655 452.223 145.215 452.223ZM158.223 444.977V457.574H156.406V442.945H158.066L158.223 444.977ZM165.342 448.141V448.346C165.342 449.114 165.251 449.827 165.068 450.484C164.886 451.135 164.619 451.702 164.268 452.184C163.923 452.665 163.496 453.04 162.988 453.307C162.48 453.574 161.898 453.707 161.24 453.707C160.57 453.707 159.977 453.596 159.463 453.375C158.949 453.154 158.512 452.831 158.154 452.408C157.796 451.985 157.51 451.477 157.295 450.885C157.087 450.292 156.943 449.625 156.865 448.883V447.789C156.943 447.008 157.09 446.308 157.305 445.689C157.52 445.071 157.803 444.544 158.154 444.107C158.512 443.665 158.945 443.329 159.453 443.102C159.961 442.867 160.547 442.75 161.211 442.75C161.875 442.75 162.464 442.88 162.979 443.141C163.493 443.395 163.926 443.759 164.277 444.234C164.629 444.71 164.893 445.279 165.068 445.943C165.251 446.601 165.342 447.333 165.342 448.141ZM163.525 448.346V448.141C163.525 447.613 163.47 447.118 163.359 446.656C163.249 446.188 163.076 445.777 162.842 445.426C162.614 445.068 162.321 444.788 161.963 444.586C161.605 444.378 161.178 444.273 160.684 444.273C160.228 444.273 159.831 444.352 159.492 444.508C159.16 444.664 158.877 444.876 158.643 445.143C158.408 445.403 158.216 445.702 158.066 446.041C157.923 446.373 157.816 446.718 157.744 447.076V449.605C157.874 450.061 158.057 450.491 158.291 450.895C158.525 451.292 158.838 451.614 159.229 451.861C159.619 452.102 160.111 452.223 160.703 452.223C161.191 452.223 161.611 452.122 161.963 451.92C162.321 451.712 162.614 451.428 162.842 451.07C163.076 450.712 163.249 450.302 163.359 449.84C163.47 449.371 163.525 448.873 163.525 448.346ZM169.453 444.605V453.512H167.646V442.945H169.404L169.453 444.605ZM172.754 442.887L172.744 444.566C172.594 444.534 172.451 444.514 172.314 444.508C172.184 444.495 172.035 444.488 171.865 444.488C171.449 444.488 171.081 444.553 170.762 444.684C170.443 444.814 170.173 444.996 169.951 445.23C169.73 445.465 169.554 445.745 169.424 446.07C169.3 446.389 169.219 446.741 169.18 447.125L168.672 447.418C168.672 446.78 168.734 446.181 168.857 445.621C168.988 445.061 169.186 444.566 169.453 444.137C169.72 443.701 170.059 443.362 170.469 443.121C170.885 442.874 171.38 442.75 171.953 442.75C172.083 442.75 172.233 442.766 172.402 442.799C172.572 442.825 172.689 442.854 172.754 442.887ZM178.613 453.707C177.878 453.707 177.21 453.583 176.611 453.336C176.019 453.082 175.508 452.727 175.078 452.271C174.655 451.816 174.329 451.275 174.102 450.65C173.874 450.025 173.76 449.342 173.76 448.6V448.189C173.76 447.33 173.887 446.565 174.141 445.895C174.395 445.217 174.74 444.645 175.176 444.176C175.612 443.707 176.107 443.352 176.66 443.111C177.214 442.87 177.786 442.75 178.379 442.75C179.134 442.75 179.785 442.88 180.332 443.141C180.885 443.401 181.338 443.766 181.689 444.234C182.041 444.697 182.301 445.243 182.471 445.875C182.64 446.5 182.725 447.184 182.725 447.926V448.736H174.834V447.262H180.918V447.125C180.892 446.656 180.794 446.201 180.625 445.758C180.462 445.315 180.202 444.951 179.844 444.664C179.486 444.378 178.997 444.234 178.379 444.234C177.969 444.234 177.591 444.322 177.246 444.498C176.901 444.667 176.605 444.921 176.357 445.26C176.11 445.598 175.918 446.012 175.781 446.5C175.645 446.988 175.576 447.551 175.576 448.189V448.6C175.576 449.101 175.645 449.573 175.781 450.016C175.924 450.452 176.13 450.836 176.396 451.168C176.67 451.5 176.999 451.76 177.383 451.949C177.773 452.138 178.216 452.232 178.711 452.232C179.349 452.232 179.889 452.102 180.332 451.842C180.775 451.581 181.162 451.233 181.494 450.797L182.588 451.666C182.36 452.011 182.07 452.34 181.719 452.652C181.367 452.965 180.934 453.219 180.42 453.414C179.912 453.609 179.31 453.707 178.613 453.707ZM190.986 450.709C190.986 450.449 190.928 450.208 190.811 449.986C190.7 449.758 190.469 449.553 190.117 449.371C189.772 449.182 189.251 449.02 188.555 448.883C187.969 448.759 187.438 448.613 186.963 448.443C186.494 448.274 186.094 448.069 185.762 447.828C185.436 447.587 185.186 447.304 185.01 446.979C184.834 446.653 184.746 446.272 184.746 445.836C184.746 445.419 184.837 445.025 185.02 444.654C185.208 444.283 185.472 443.954 185.811 443.668C186.156 443.382 186.569 443.157 187.051 442.994C187.533 442.831 188.07 442.75 188.662 442.75C189.508 442.75 190.231 442.9 190.83 443.199C191.429 443.499 191.888 443.899 192.207 444.4C192.526 444.895 192.686 445.445 192.686 446.051H190.879C190.879 445.758 190.791 445.475 190.615 445.201C190.446 444.921 190.195 444.69 189.863 444.508C189.538 444.326 189.137 444.234 188.662 444.234C188.161 444.234 187.754 444.312 187.441 444.469C187.135 444.618 186.911 444.811 186.768 445.045C186.631 445.279 186.562 445.527 186.562 445.787C186.562 445.982 186.595 446.158 186.66 446.314C186.732 446.464 186.855 446.604 187.031 446.734C187.207 446.858 187.454 446.975 187.773 447.086C188.092 447.197 188.499 447.307 188.994 447.418C189.86 447.613 190.573 447.848 191.133 448.121C191.693 448.395 192.109 448.73 192.383 449.127C192.656 449.524 192.793 450.006 192.793 450.572C192.793 451.035 192.695 451.458 192.5 451.842C192.311 452.226 192.035 452.558 191.67 452.838C191.312 453.111 190.882 453.326 190.381 453.482C189.886 453.632 189.329 453.707 188.711 453.707C187.78 453.707 186.992 453.541 186.348 453.209C185.703 452.877 185.215 452.447 184.883 451.92C184.551 451.393 184.385 450.836 184.385 450.25H186.201C186.227 450.745 186.37 451.139 186.631 451.432C186.891 451.718 187.21 451.923 187.588 452.047C187.965 452.164 188.34 452.223 188.711 452.223C189.206 452.223 189.619 452.158 189.951 452.027C190.29 451.897 190.547 451.718 190.723 451.49C190.898 451.262 190.986 451.002 190.986 450.709ZM201.396 451.705V446.266C201.396 445.849 201.312 445.488 201.143 445.182C200.98 444.869 200.732 444.628 200.4 444.459C200.068 444.29 199.658 444.205 199.17 444.205C198.714 444.205 198.314 444.283 197.969 444.439C197.63 444.596 197.363 444.801 197.168 445.055C196.979 445.309 196.885 445.582 196.885 445.875H195.078C195.078 445.497 195.176 445.123 195.371 444.752C195.566 444.381 195.846 444.046 196.211 443.746C196.582 443.44 197.025 443.199 197.539 443.023C198.06 442.841 198.639 442.75 199.277 442.75C200.046 442.75 200.723 442.88 201.309 443.141C201.901 443.401 202.363 443.795 202.695 444.322C203.034 444.843 203.203 445.497 203.203 446.285V451.207C203.203 451.559 203.232 451.933 203.291 452.33C203.356 452.727 203.451 453.069 203.574 453.355V453.512H201.689C201.598 453.303 201.527 453.027 201.475 452.682C201.423 452.33 201.396 452.005 201.396 451.705ZM201.709 447.105L201.729 448.375H199.902C199.388 448.375 198.929 448.417 198.525 448.502C198.122 448.58 197.783 448.701 197.51 448.863C197.236 449.026 197.028 449.231 196.885 449.479C196.742 449.719 196.67 450.003 196.67 450.328C196.67 450.66 196.745 450.963 196.895 451.236C197.044 451.51 197.269 451.728 197.568 451.891C197.874 452.047 198.249 452.125 198.691 452.125C199.245 452.125 199.733 452.008 200.156 451.773C200.579 451.539 200.915 451.253 201.162 450.914C201.416 450.576 201.553 450.247 201.572 449.928L202.344 450.797C202.298 451.07 202.174 451.373 201.973 451.705C201.771 452.037 201.501 452.356 201.162 452.662C200.83 452.962 200.433 453.212 199.971 453.414C199.515 453.609 199.001 453.707 198.428 453.707C197.712 453.707 197.083 453.567 196.543 453.287C196.009 453.007 195.592 452.633 195.293 452.164C195 451.689 194.854 451.158 194.854 450.572C194.854 450.006 194.964 449.508 195.186 449.078C195.407 448.642 195.726 448.281 196.143 447.994C196.559 447.701 197.061 447.48 197.646 447.33C198.232 447.18 198.887 447.105 199.609 447.105H201.709ZM208.008 438.512V453.512H206.191V438.512H208.008ZM215.293 453.707C214.557 453.707 213.89 453.583 213.291 453.336C212.699 453.082 212.188 452.727 211.758 452.271C211.335 451.816 211.009 451.275 210.781 450.65C210.553 450.025 210.439 449.342 210.439 448.6V448.189C210.439 447.33 210.566 446.565 210.82 445.895C211.074 445.217 211.419 444.645 211.855 444.176C212.292 443.707 212.786 443.352 213.34 443.111C213.893 442.87 214.466 442.75 215.059 442.75C215.814 442.75 216.465 442.88 217.012 443.141C217.565 443.401 218.018 443.766 218.369 444.234C218.721 444.697 218.981 445.243 219.15 445.875C219.32 446.5 219.404 447.184 219.404 447.926V448.736H211.514V447.262H217.598V447.125C217.572 446.656 217.474 446.201 217.305 445.758C217.142 445.315 216.882 444.951 216.523 444.664C216.165 444.378 215.677 444.234 215.059 444.234C214.648 444.234 214.271 444.322 213.926 444.498C213.581 444.667 213.285 444.921 213.037 445.26C212.79 445.598 212.598 446.012 212.461 446.5C212.324 446.988 212.256 447.551 212.256 448.189V448.6C212.256 449.101 212.324 449.573 212.461 450.016C212.604 450.452 212.809 450.836 213.076 451.168C213.35 451.5 213.678 451.76 214.062 451.949C214.453 452.138 214.896 452.232 215.391 452.232C216.029 452.232 216.569 452.102 217.012 451.842C217.454 451.581 217.842 451.233 218.174 450.797L219.268 451.666C219.04 452.011 218.75 452.34 218.398 452.652C218.047 452.965 217.614 453.219 217.1 453.414C216.592 453.609 215.99 453.707 215.293 453.707ZM226.406 447.828V447.73C226.406 446.311 226.566 445.029 226.885 443.883C227.204 442.73 227.611 441.721 228.105 440.855C228.6 439.99 229.121 439.273 229.668 438.707C230.215 438.134 230.719 437.721 231.182 437.467L231.562 438.658C231.178 438.951 230.788 439.355 230.391 439.869C230 440.383 229.639 441.015 229.307 441.764C228.981 442.512 228.717 443.382 228.516 444.371C228.314 445.361 228.213 446.474 228.213 447.711V447.848C228.213 449.085 228.314 450.201 228.516 451.197C228.717 452.187 228.981 453.059 229.307 453.814C229.639 454.57 230 455.211 230.391 455.738C230.788 456.272 231.178 456.695 231.562 457.008L231.182 458.102C230.719 457.848 230.215 457.434 229.668 456.861C229.121 456.295 228.6 455.579 228.105 454.713C227.611 453.854 227.204 452.848 226.885 451.695C226.566 450.543 226.406 449.254 226.406 447.828ZM235.42 446.744L233.975 446.373L234.688 439.293H241.982V440.963H236.221L235.791 444.83C236.051 444.68 236.38 444.54 236.777 444.41C237.181 444.28 237.643 444.215 238.164 444.215C238.822 444.215 239.411 444.329 239.932 444.557C240.452 444.778 240.895 445.097 241.26 445.514C241.631 445.93 241.914 446.432 242.109 447.018C242.305 447.604 242.402 448.258 242.402 448.98C242.402 449.664 242.308 450.292 242.119 450.865C241.937 451.438 241.66 451.939 241.289 452.369C240.918 452.792 240.449 453.121 239.883 453.355C239.323 453.59 238.662 453.707 237.9 453.707C237.327 453.707 236.784 453.629 236.27 453.473C235.762 453.31 235.306 453.066 234.902 452.74C234.505 452.408 234.18 451.998 233.926 451.51C233.678 451.015 233.522 450.436 233.457 449.771H235.176C235.254 450.305 235.41 450.755 235.645 451.119C235.879 451.484 236.185 451.76 236.562 451.949C236.947 452.132 237.393 452.223 237.9 452.223C238.33 452.223 238.711 452.148 239.043 451.998C239.375 451.848 239.655 451.633 239.883 451.354C240.111 451.074 240.283 450.735 240.4 450.338C240.524 449.941 240.586 449.495 240.586 449C240.586 448.551 240.524 448.134 240.4 447.75C240.277 447.366 240.091 447.031 239.844 446.744C239.603 446.458 239.307 446.236 238.955 446.08C238.604 445.917 238.2 445.836 237.744 445.836C237.139 445.836 236.68 445.917 236.367 446.08C236.061 446.243 235.745 446.464 235.42 446.744ZM253.311 445.27V447.438C253.311 448.603 253.206 449.586 252.998 450.387C252.79 451.188 252.49 451.832 252.1 452.32C251.709 452.809 251.237 453.163 250.684 453.385C250.137 453.6 249.518 453.707 248.828 453.707C248.281 453.707 247.777 453.639 247.314 453.502C246.852 453.365 246.436 453.147 246.064 452.848C245.7 452.542 245.387 452.145 245.127 451.656C244.867 451.168 244.668 450.576 244.531 449.879C244.395 449.182 244.326 448.368 244.326 447.438V445.27C244.326 444.104 244.43 443.128 244.639 442.34C244.854 441.552 245.156 440.921 245.547 440.445C245.938 439.964 246.406 439.618 246.953 439.41C247.507 439.202 248.125 439.098 248.809 439.098C249.362 439.098 249.87 439.166 250.332 439.303C250.801 439.433 251.217 439.645 251.582 439.938C251.947 440.224 252.256 440.608 252.51 441.09C252.77 441.565 252.969 442.148 253.105 442.838C253.242 443.528 253.311 444.339 253.311 445.27ZM251.494 447.73V444.967C251.494 444.329 251.455 443.769 251.377 443.287C251.305 442.799 251.198 442.382 251.055 442.037C250.911 441.692 250.729 441.412 250.508 441.197C250.293 440.982 250.042 440.826 249.756 440.729C249.476 440.624 249.16 440.572 248.809 440.572C248.379 440.572 247.998 440.654 247.666 440.816C247.334 440.973 247.054 441.223 246.826 441.568C246.605 441.913 246.436 442.366 246.318 442.926C246.201 443.486 246.143 444.166 246.143 444.967V447.73C246.143 448.368 246.178 448.932 246.25 449.42C246.328 449.908 246.442 450.331 246.592 450.689C246.742 451.041 246.924 451.331 247.139 451.559C247.354 451.786 247.601 451.956 247.881 452.066C248.167 452.171 248.483 452.223 248.828 452.223C249.271 452.223 249.658 452.138 249.99 451.969C250.322 451.799 250.599 451.536 250.82 451.178C251.048 450.813 251.217 450.348 251.328 449.781C251.439 449.208 251.494 448.525 251.494 447.73ZM255.479 442.779V442.027C255.479 441.487 255.596 440.995 255.83 440.553C256.064 440.11 256.4 439.755 256.836 439.488C257.272 439.221 257.79 439.088 258.389 439.088C259.001 439.088 259.521 439.221 259.951 439.488C260.387 439.755 260.723 440.11 260.957 440.553C261.191 440.995 261.309 441.487 261.309 442.027V442.779C261.309 443.307 261.191 443.792 260.957 444.234C260.729 444.677 260.397 445.032 259.961 445.299C259.531 445.566 259.014 445.699 258.408 445.699C257.803 445.699 257.279 445.566 256.836 445.299C256.4 445.032 256.064 444.677 255.83 444.234C255.596 443.792 255.479 443.307 255.479 442.779ZM256.836 442.027V442.779C256.836 443.079 256.891 443.362 257.002 443.629C257.119 443.896 257.295 444.114 257.529 444.283C257.764 444.446 258.057 444.527 258.408 444.527C258.76 444.527 259.049 444.446 259.277 444.283C259.505 444.114 259.674 443.896 259.785 443.629C259.896 443.362 259.951 443.079 259.951 442.779V442.027C259.951 441.721 259.893 441.435 259.775 441.168C259.665 440.895 259.492 440.676 259.258 440.514C259.03 440.344 258.74 440.26 258.389 440.26C258.044 440.26 257.754 440.344 257.52 440.514C257.292 440.676 257.119 440.895 257.002 441.168C256.891 441.435 256.836 441.721 256.836 442.027ZM262.402 450.787V450.025C262.402 449.492 262.52 449.003 262.754 448.561C262.988 448.118 263.324 447.763 263.76 447.496C264.196 447.229 264.714 447.096 265.312 447.096C265.924 447.096 266.445 447.229 266.875 447.496C267.311 447.763 267.646 448.118 267.881 448.561C268.115 449.003 268.232 449.492 268.232 450.025V450.787C268.232 451.321 268.115 451.809 267.881 452.252C267.653 452.695 267.321 453.049 266.885 453.316C266.455 453.583 265.938 453.717 265.332 453.717C264.727 453.717 264.206 453.583 263.77 453.316C263.333 453.049 262.995 452.695 262.754 452.252C262.52 451.809 262.402 451.321 262.402 450.787ZM263.76 450.025V450.787C263.76 451.087 263.815 451.373 263.926 451.646C264.043 451.913 264.219 452.132 264.453 452.301C264.688 452.464 264.98 452.545 265.332 452.545C265.684 452.545 265.973 452.464 266.201 452.301C266.436 452.132 266.608 451.913 266.719 451.646C266.829 451.38 266.885 451.093 266.885 450.787V450.025C266.885 449.719 266.826 449.433 266.709 449.166C266.598 448.899 266.426 448.684 266.191 448.521C265.964 448.352 265.671 448.268 265.312 448.268C264.967 448.268 264.678 448.352 264.443 448.521C264.215 448.684 264.043 448.899 263.926 449.166C263.815 449.433 263.76 449.719 263.76 450.025ZM265.762 441.314L258.818 452.428L257.803 451.783L264.746 440.67L265.762 441.314ZM274.639 447.73V447.828C274.639 449.254 274.479 450.543 274.16 451.695C273.841 452.848 273.434 453.854 272.939 454.713C272.445 455.579 271.924 456.295 271.377 456.861C270.83 457.434 270.326 457.848 269.863 458.102L269.482 457.008C269.867 456.715 270.254 456.305 270.645 455.777C271.035 455.257 271.396 454.612 271.729 453.844C272.061 453.082 272.327 452.203 272.529 451.207C272.731 450.204 272.832 449.085 272.832 447.848V447.711C272.832 446.474 272.725 445.357 272.51 444.361C272.295 443.359 272.015 442.477 271.67 441.715C271.331 440.953 270.967 440.312 270.576 439.791C270.192 439.264 269.827 438.857 269.482 438.57L269.863 437.467C270.326 437.721 270.83 438.134 271.377 438.707C271.924 439.273 272.445 439.99 272.939 440.855C273.434 441.721 273.841 442.73 274.16 443.883C274.479 445.029 274.639 446.311 274.639 447.73Z" fill="#FFFDF0" fill-opacity="0.8"/>
<rect x="56" y="466.512" width="23" height="23" rx="11.5" fill="#2CA69E"/>
<path d="M97.2461 471.293H99.0723L103.73 482.885L108.379 471.293H110.215L104.434 485.512H103.008L97.2461 471.293ZM96.6504 471.293H98.2617L98.5254 479.965V485.512H96.6504V471.293ZM109.189 471.293H110.801V485.512H108.926V479.965L109.189 471.293ZM120.068 483.705V478.266C120.068 477.849 119.984 477.488 119.814 477.182C119.652 476.869 119.404 476.628 119.072 476.459C118.74 476.29 118.33 476.205 117.842 476.205C117.386 476.205 116.986 476.283 116.641 476.439C116.302 476.596 116.035 476.801 115.84 477.055C115.651 477.309 115.557 477.582 115.557 477.875H113.75C113.75 477.497 113.848 477.123 114.043 476.752C114.238 476.381 114.518 476.046 114.883 475.746C115.254 475.44 115.697 475.199 116.211 475.023C116.732 474.841 117.311 474.75 117.949 474.75C118.717 474.75 119.395 474.88 119.98 475.141C120.573 475.401 121.035 475.795 121.367 476.322C121.706 476.843 121.875 477.497 121.875 478.285V483.207C121.875 483.559 121.904 483.933 121.963 484.33C122.028 484.727 122.122 485.069 122.246 485.355V485.512H120.361C120.27 485.303 120.199 485.027 120.146 484.682C120.094 484.33 120.068 484.005 120.068 483.705ZM120.381 479.105L120.4 480.375H118.574C118.06 480.375 117.601 480.417 117.197 480.502C116.794 480.58 116.455 480.701 116.182 480.863C115.908 481.026 115.7 481.231 115.557 481.479C115.413 481.719 115.342 482.003 115.342 482.328C115.342 482.66 115.417 482.963 115.566 483.236C115.716 483.51 115.941 483.728 116.24 483.891C116.546 484.047 116.921 484.125 117.363 484.125C117.917 484.125 118.405 484.008 118.828 483.773C119.251 483.539 119.587 483.253 119.834 482.914C120.088 482.576 120.225 482.247 120.244 481.928L121.016 482.797C120.97 483.07 120.846 483.373 120.645 483.705C120.443 484.037 120.173 484.356 119.834 484.662C119.502 484.962 119.105 485.212 118.643 485.414C118.187 485.609 117.673 485.707 117.1 485.707C116.383 485.707 115.755 485.567 115.215 485.287C114.681 485.007 114.264 484.633 113.965 484.164C113.672 483.689 113.525 483.158 113.525 482.572C113.525 482.006 113.636 481.508 113.857 481.078C114.079 480.642 114.398 480.281 114.814 479.994C115.231 479.701 115.732 479.48 116.318 479.33C116.904 479.18 117.559 479.105 118.281 479.105H120.381ZM126.523 476.605V485.512H124.717V474.945H126.475L126.523 476.605ZM129.824 474.887L129.814 476.566C129.665 476.534 129.521 476.514 129.385 476.508C129.255 476.495 129.105 476.488 128.936 476.488C128.519 476.488 128.151 476.553 127.832 476.684C127.513 476.814 127.243 476.996 127.021 477.23C126.8 477.465 126.624 477.745 126.494 478.07C126.37 478.389 126.289 478.741 126.25 479.125L125.742 479.418C125.742 478.78 125.804 478.181 125.928 477.621C126.058 477.061 126.257 476.566 126.523 476.137C126.79 475.701 127.129 475.362 127.539 475.121C127.956 474.874 128.451 474.75 129.023 474.75C129.154 474.75 129.303 474.766 129.473 474.799C129.642 474.825 129.759 474.854 129.824 474.887ZM133.311 470.512V485.512H131.494V470.512H133.311ZM139.766 474.945L135.156 479.877L132.578 482.553L132.432 480.629L134.277 478.422L137.559 474.945H139.766ZM138.115 485.512L134.346 480.473L135.283 478.861L140.244 485.512H138.115ZM145.82 485.707C145.085 485.707 144.417 485.583 143.818 485.336C143.226 485.082 142.715 484.727 142.285 484.271C141.862 483.816 141.536 483.275 141.309 482.65C141.081 482.025 140.967 481.342 140.967 480.6V480.189C140.967 479.33 141.094 478.565 141.348 477.895C141.602 477.217 141.947 476.645 142.383 476.176C142.819 475.707 143.314 475.352 143.867 475.111C144.421 474.87 144.993 474.75 145.586 474.75C146.341 474.75 146.992 474.88 147.539 475.141C148.092 475.401 148.545 475.766 148.896 476.234C149.248 476.697 149.508 477.243 149.678 477.875C149.847 478.5 149.932 479.184 149.932 479.926V480.736H142.041V479.262H148.125V479.125C148.099 478.656 148.001 478.201 147.832 477.758C147.669 477.315 147.409 476.951 147.051 476.664C146.693 476.378 146.204 476.234 145.586 476.234C145.176 476.234 144.798 476.322 144.453 476.498C144.108 476.667 143.812 476.921 143.564 477.26C143.317 477.598 143.125 478.012 142.988 478.5C142.852 478.988 142.783 479.551 142.783 480.189V480.6C142.783 481.101 142.852 481.573 142.988 482.016C143.132 482.452 143.337 482.836 143.604 483.168C143.877 483.5 144.206 483.76 144.59 483.949C144.98 484.138 145.423 484.232 145.918 484.232C146.556 484.232 147.096 484.102 147.539 483.842C147.982 483.581 148.369 483.233 148.701 482.797L149.795 483.666C149.567 484.011 149.277 484.34 148.926 484.652C148.574 484.965 148.141 485.219 147.627 485.414C147.119 485.609 146.517 485.707 145.82 485.707ZM156.465 474.945V476.332H150.752V474.945H156.465ZM152.686 472.377H154.492V482.895C154.492 483.253 154.548 483.523 154.658 483.705C154.769 483.887 154.912 484.008 155.088 484.066C155.264 484.125 155.452 484.154 155.654 484.154C155.804 484.154 155.96 484.141 156.123 484.115C156.292 484.083 156.419 484.057 156.504 484.037L156.514 485.512C156.37 485.557 156.182 485.6 155.947 485.639C155.719 485.684 155.443 485.707 155.117 485.707C154.674 485.707 154.268 485.619 153.896 485.443C153.525 485.268 153.229 484.975 153.008 484.564C152.793 484.148 152.686 483.588 152.686 482.885V472.377ZM160.547 474.945V485.512H158.73V474.945H160.547ZM158.594 472.143C158.594 471.85 158.682 471.602 158.857 471.4C159.04 471.199 159.307 471.098 159.658 471.098C160.003 471.098 160.267 471.199 160.449 471.4C160.638 471.602 160.732 471.85 160.732 472.143C160.732 472.423 160.638 472.663 160.449 472.865C160.267 473.061 160.003 473.158 159.658 473.158C159.307 473.158 159.04 473.061 158.857 472.865C158.682 472.663 158.594 472.423 158.594 472.143ZM165.254 477.201V485.512H163.447V474.945H165.156L165.254 477.201ZM164.824 479.828L164.072 479.799C164.079 479.076 164.186 478.409 164.395 477.797C164.603 477.178 164.896 476.641 165.273 476.186C165.651 475.73 166.1 475.378 166.621 475.131C167.148 474.877 167.731 474.75 168.369 474.75C168.89 474.75 169.359 474.822 169.775 474.965C170.192 475.102 170.547 475.323 170.84 475.629C171.139 475.935 171.367 476.332 171.523 476.82C171.68 477.302 171.758 477.891 171.758 478.588V485.512H169.941V478.568C169.941 478.015 169.86 477.572 169.697 477.24C169.535 476.902 169.297 476.658 168.984 476.508C168.672 476.352 168.288 476.273 167.832 476.273C167.383 476.273 166.973 476.368 166.602 476.557C166.237 476.745 165.921 477.006 165.654 477.338C165.394 477.67 165.189 478.051 165.039 478.48C164.896 478.904 164.824 479.353 164.824 479.828ZM181.348 474.945H182.988V485.287C182.988 486.218 182.799 487.012 182.422 487.67C182.044 488.327 181.517 488.826 180.84 489.164C180.169 489.509 179.395 489.682 178.516 489.682C178.151 489.682 177.721 489.623 177.227 489.506C176.738 489.395 176.257 489.203 175.781 488.93C175.312 488.663 174.919 488.301 174.6 487.846L175.547 486.771C175.99 487.305 176.452 487.676 176.934 487.885C177.422 488.093 177.904 488.197 178.379 488.197C178.952 488.197 179.447 488.09 179.863 487.875C180.28 487.66 180.602 487.341 180.83 486.918C181.064 486.501 181.182 485.987 181.182 485.375V477.27L181.348 474.945ZM174.072 480.346V480.141C174.072 479.333 174.167 478.601 174.355 477.943C174.551 477.279 174.827 476.71 175.186 476.234C175.55 475.759 175.99 475.395 176.504 475.141C177.018 474.88 177.598 474.75 178.242 474.75C178.906 474.75 179.486 474.867 179.98 475.102C180.482 475.329 180.905 475.665 181.25 476.107C181.602 476.544 181.878 477.071 182.08 477.689C182.282 478.308 182.422 479.008 182.5 479.789V480.688C182.428 481.462 182.288 482.159 182.08 482.777C181.878 483.396 181.602 483.923 181.25 484.359C180.905 484.796 180.482 485.131 179.98 485.365C179.479 485.593 178.893 485.707 178.223 485.707C177.591 485.707 177.018 485.574 176.504 485.307C175.996 485.04 175.56 484.665 175.195 484.184C174.831 483.702 174.551 483.135 174.355 482.484C174.167 481.827 174.072 481.114 174.072 480.346ZM175.879 480.141V480.346C175.879 480.873 175.931 481.368 176.035 481.83C176.146 482.292 176.312 482.699 176.533 483.051C176.761 483.402 177.051 483.679 177.402 483.881C177.754 484.076 178.174 484.174 178.662 484.174C179.261 484.174 179.756 484.047 180.146 483.793C180.537 483.539 180.846 483.204 181.074 482.787C181.309 482.37 181.491 481.918 181.621 481.43V479.076C181.549 478.718 181.439 478.373 181.289 478.041C181.146 477.702 180.957 477.403 180.723 477.143C180.495 476.876 180.212 476.664 179.873 476.508C179.535 476.352 179.137 476.273 178.682 476.273C178.187 476.273 177.76 476.378 177.402 476.586C177.051 476.788 176.761 477.068 176.533 477.426C176.312 477.777 176.146 478.188 176.035 478.656C175.931 479.118 175.879 479.613 175.879 480.141ZM190.625 479.828V479.73C190.625 478.311 190.785 477.029 191.104 475.883C191.423 474.73 191.829 473.721 192.324 472.855C192.819 471.99 193.34 471.273 193.887 470.707C194.434 470.134 194.938 469.721 195.4 469.467L195.781 470.658C195.397 470.951 195.007 471.355 194.609 471.869C194.219 472.383 193.857 473.015 193.525 473.764C193.2 474.512 192.936 475.382 192.734 476.371C192.533 477.361 192.432 478.474 192.432 479.711V479.848C192.432 481.085 192.533 482.201 192.734 483.197C192.936 484.187 193.2 485.059 193.525 485.814C193.857 486.57 194.219 487.211 194.609 487.738C195.007 488.272 195.397 488.695 195.781 489.008L195.4 490.102C194.938 489.848 194.434 489.434 193.887 488.861C193.34 488.295 192.819 487.579 192.324 486.713C191.829 485.854 191.423 484.848 191.104 483.695C190.785 482.543 190.625 481.254 190.625 479.828ZM199.99 477.514H201.279C201.911 477.514 202.432 477.41 202.842 477.201C203.258 476.986 203.568 476.697 203.77 476.332C203.978 475.961 204.082 475.544 204.082 475.082C204.082 474.535 203.991 474.076 203.809 473.705C203.626 473.334 203.353 473.054 202.988 472.865C202.624 472.676 202.161 472.582 201.602 472.582C201.094 472.582 200.645 472.683 200.254 472.885C199.87 473.08 199.567 473.36 199.346 473.725C199.131 474.089 199.023 474.519 199.023 475.014H197.217C197.217 474.291 197.399 473.633 197.764 473.041C198.128 472.449 198.639 471.977 199.297 471.625C199.961 471.273 200.729 471.098 201.602 471.098C202.461 471.098 203.213 471.251 203.857 471.557C204.502 471.856 205.003 472.305 205.361 472.904C205.719 473.497 205.898 474.236 205.898 475.121C205.898 475.479 205.814 475.863 205.645 476.273C205.482 476.677 205.225 477.055 204.873 477.406C204.528 477.758 204.079 478.048 203.525 478.275C202.972 478.497 202.308 478.607 201.533 478.607H199.99V477.514ZM199.99 478.998V477.914H201.533C202.438 477.914 203.187 478.021 203.779 478.236C204.372 478.451 204.837 478.738 205.176 479.096C205.521 479.454 205.762 479.848 205.898 480.277C206.042 480.701 206.113 481.124 206.113 481.547C206.113 482.211 205.999 482.8 205.771 483.314C205.55 483.829 205.234 484.265 204.824 484.623C204.421 484.981 203.945 485.251 203.398 485.434C202.852 485.616 202.256 485.707 201.611 485.707C200.993 485.707 200.41 485.619 199.863 485.443C199.323 485.268 198.844 485.014 198.428 484.682C198.011 484.343 197.686 483.93 197.451 483.441C197.217 482.947 197.1 482.383 197.1 481.752H198.906C198.906 482.247 199.014 482.68 199.229 483.051C199.45 483.422 199.762 483.712 200.166 483.92C200.576 484.122 201.058 484.223 201.611 484.223C202.165 484.223 202.64 484.128 203.037 483.939C203.441 483.744 203.75 483.451 203.965 483.061C204.186 482.67 204.297 482.178 204.297 481.586C204.297 480.993 204.173 480.508 203.926 480.131C203.678 479.747 203.327 479.464 202.871 479.281C202.422 479.092 201.891 478.998 201.279 478.998H199.99ZM217.529 477.27V479.438C217.529 480.603 217.425 481.586 217.217 482.387C217.008 483.188 216.709 483.832 216.318 484.32C215.928 484.809 215.456 485.163 214.902 485.385C214.355 485.6 213.737 485.707 213.047 485.707C212.5 485.707 211.995 485.639 211.533 485.502C211.071 485.365 210.654 485.147 210.283 484.848C209.919 484.542 209.606 484.145 209.346 483.656C209.085 483.168 208.887 482.576 208.75 481.879C208.613 481.182 208.545 480.368 208.545 479.438V477.27C208.545 476.104 208.649 475.128 208.857 474.34C209.072 473.552 209.375 472.921 209.766 472.445C210.156 471.964 210.625 471.618 211.172 471.41C211.725 471.202 212.344 471.098 213.027 471.098C213.581 471.098 214.089 471.166 214.551 471.303C215.02 471.433 215.436 471.645 215.801 471.938C216.165 472.224 216.475 472.608 216.729 473.09C216.989 473.565 217.188 474.148 217.324 474.838C217.461 475.528 217.529 476.339 217.529 477.27ZM215.713 479.73V476.967C215.713 476.329 215.674 475.769 215.596 475.287C215.524 474.799 215.417 474.382 215.273 474.037C215.13 473.692 214.948 473.412 214.727 473.197C214.512 472.982 214.261 472.826 213.975 472.729C213.695 472.624 213.379 472.572 213.027 472.572C212.598 472.572 212.217 472.654 211.885 472.816C211.553 472.973 211.273 473.223 211.045 473.568C210.824 473.913 210.654 474.366 210.537 474.926C210.42 475.486 210.361 476.166 210.361 476.967V479.73C210.361 480.368 210.397 480.932 210.469 481.42C210.547 481.908 210.661 482.331 210.811 482.689C210.96 483.041 211.143 483.331 211.357 483.559C211.572 483.786 211.82 483.956 212.1 484.066C212.386 484.171 212.702 484.223 213.047 484.223C213.49 484.223 213.877 484.138 214.209 483.969C214.541 483.799 214.818 483.536 215.039 483.178C215.267 482.813 215.436 482.348 215.547 481.781C215.658 481.208 215.713 480.525 215.713 479.73ZM219.697 474.779V474.027C219.697 473.487 219.814 472.995 220.049 472.553C220.283 472.11 220.618 471.755 221.055 471.488C221.491 471.221 222.008 471.088 222.607 471.088C223.219 471.088 223.74 471.221 224.17 471.488C224.606 471.755 224.941 472.11 225.176 472.553C225.41 472.995 225.527 473.487 225.527 474.027V474.779C225.527 475.307 225.41 475.792 225.176 476.234C224.948 476.677 224.616 477.032 224.18 477.299C223.75 477.566 223.232 477.699 222.627 477.699C222.021 477.699 221.497 477.566 221.055 477.299C220.618 477.032 220.283 476.677 220.049 476.234C219.814 475.792 219.697 475.307 219.697 474.779ZM221.055 474.027V474.779C221.055 475.079 221.11 475.362 221.221 475.629C221.338 475.896 221.514 476.114 221.748 476.283C221.982 476.446 222.275 476.527 222.627 476.527C222.979 476.527 223.268 476.446 223.496 476.283C223.724 476.114 223.893 475.896 224.004 475.629C224.115 475.362 224.17 475.079 224.17 474.779V474.027C224.17 473.721 224.111 473.435 223.994 473.168C223.883 472.895 223.711 472.676 223.477 472.514C223.249 472.344 222.959 472.26 222.607 472.26C222.262 472.26 221.973 472.344 221.738 472.514C221.51 472.676 221.338 472.895 221.221 473.168C221.11 473.435 221.055 473.721 221.055 474.027ZM226.621 482.787V482.025C226.621 481.492 226.738 481.003 226.973 480.561C227.207 480.118 227.542 479.763 227.979 479.496C228.415 479.229 228.932 479.096 229.531 479.096C230.143 479.096 230.664 479.229 231.094 479.496C231.53 479.763 231.865 480.118 232.1 480.561C232.334 481.003 232.451 481.492 232.451 482.025V482.787C232.451 483.321 232.334 483.809 232.1 484.252C231.872 484.695 231.54 485.049 231.104 485.316C230.674 485.583 230.156 485.717 229.551 485.717C228.945 485.717 228.424 485.583 227.988 485.316C227.552 485.049 227.214 484.695 226.973 484.252C226.738 483.809 226.621 483.321 226.621 482.787ZM227.979 482.025V482.787C227.979 483.087 228.034 483.373 228.145 483.646C228.262 483.913 228.438 484.132 228.672 484.301C228.906 484.464 229.199 484.545 229.551 484.545C229.902 484.545 230.192 484.464 230.42 484.301C230.654 484.132 230.827 483.913 230.938 483.646C231.048 483.38 231.104 483.093 231.104 482.787V482.025C231.104 481.719 231.045 481.433 230.928 481.166C230.817 480.899 230.645 480.684 230.41 480.521C230.182 480.352 229.889 480.268 229.531 480.268C229.186 480.268 228.896 480.352 228.662 480.521C228.434 480.684 228.262 480.899 228.145 481.166C228.034 481.433 227.979 481.719 227.979 482.025ZM229.98 473.314L223.037 484.428L222.021 483.783L228.965 472.67L229.98 473.314ZM238.857 479.73V479.828C238.857 481.254 238.698 482.543 238.379 483.695C238.06 484.848 237.653 485.854 237.158 486.713C236.663 487.579 236.143 488.295 235.596 488.861C235.049 489.434 234.544 489.848 234.082 490.102L233.701 489.008C234.085 488.715 234.473 488.305 234.863 487.777C235.254 487.257 235.615 486.612 235.947 485.844C236.279 485.082 236.546 484.203 236.748 483.207C236.95 482.204 237.051 481.085 237.051 479.848V479.711C237.051 478.474 236.943 477.357 236.729 476.361C236.514 475.359 236.234 474.477 235.889 473.715C235.55 472.953 235.186 472.312 234.795 471.791C234.411 471.264 234.046 470.857 233.701 470.57L234.082 469.467C234.544 469.721 235.049 470.134 235.596 470.707C236.143 471.273 236.663 471.99 237.158 472.855C237.653 473.721 238.06 474.73 238.379 475.883C238.698 477.029 238.857 478.311 238.857 479.73Z" fill="#FFFDF0" fill-opacity="0.8"/>
<rect x="56" y="498.512" width="23" height="23" rx="11.5" fill="#CD4356"/>
<path d="M101.904 503.293V517.512H100.049V503.293H101.904ZM106.475 503.293V504.836H95.4883V503.293H106.475ZM111.719 517.707C110.983 517.707 110.316 517.583 109.717 517.336C109.124 517.082 108.613 516.727 108.184 516.271C107.76 515.816 107.435 515.275 107.207 514.65C106.979 514.025 106.865 513.342 106.865 512.6V512.189C106.865 511.33 106.992 510.565 107.246 509.895C107.5 509.217 107.845 508.645 108.281 508.176C108.717 507.707 109.212 507.352 109.766 507.111C110.319 506.87 110.892 506.75 111.484 506.75C112.24 506.75 112.891 506.88 113.438 507.141C113.991 507.401 114.443 507.766 114.795 508.234C115.146 508.697 115.407 509.243 115.576 509.875C115.745 510.5 115.83 511.184 115.83 511.926V512.736H107.939V511.262H114.023V511.125C113.997 510.656 113.9 510.201 113.73 509.758C113.568 509.315 113.307 508.951 112.949 508.664C112.591 508.378 112.103 508.234 111.484 508.234C111.074 508.234 110.697 508.322 110.352 508.498C110.007 508.667 109.71 508.921 109.463 509.26C109.215 509.598 109.023 510.012 108.887 510.5C108.75 510.988 108.682 511.551 108.682 512.189V512.6C108.682 513.101 108.75 513.573 108.887 514.016C109.03 514.452 109.235 514.836 109.502 515.168C109.775 515.5 110.104 515.76 110.488 515.949C110.879 516.138 111.322 516.232 111.816 516.232C112.454 516.232 112.995 516.102 113.438 515.842C113.88 515.581 114.268 515.233 114.6 514.797L115.693 515.666C115.465 516.011 115.176 516.34 114.824 516.652C114.473 516.965 114.04 517.219 113.525 517.414C113.018 517.609 112.415 517.707 111.719 517.707ZM124.17 515.705V510.266C124.17 509.849 124.085 509.488 123.916 509.182C123.753 508.869 123.506 508.628 123.174 508.459C122.842 508.29 122.432 508.205 121.943 508.205C121.488 508.205 121.087 508.283 120.742 508.439C120.404 508.596 120.137 508.801 119.941 509.055C119.753 509.309 119.658 509.582 119.658 509.875H117.852C117.852 509.497 117.949 509.123 118.145 508.752C118.34 508.381 118.62 508.046 118.984 507.746C119.355 507.44 119.798 507.199 120.312 507.023C120.833 506.841 121.413 506.75 122.051 506.75C122.819 506.75 123.496 506.88 124.082 507.141C124.674 507.401 125.137 507.795 125.469 508.322C125.807 508.843 125.977 509.497 125.977 510.285V515.207C125.977 515.559 126.006 515.933 126.064 516.33C126.13 516.727 126.224 517.069 126.348 517.355V517.512H124.463C124.372 517.303 124.3 517.027 124.248 516.682C124.196 516.33 124.17 516.005 124.17 515.705ZM124.482 511.105L124.502 512.375H122.676C122.161 512.375 121.702 512.417 121.299 512.502C120.895 512.58 120.557 512.701 120.283 512.863C120.01 513.026 119.801 513.231 119.658 513.479C119.515 513.719 119.443 514.003 119.443 514.328C119.443 514.66 119.518 514.963 119.668 515.236C119.818 515.51 120.042 515.728 120.342 515.891C120.648 516.047 121.022 516.125 121.465 516.125C122.018 516.125 122.507 516.008 122.93 515.773C123.353 515.539 123.688 515.253 123.936 514.914C124.189 514.576 124.326 514.247 124.346 513.928L125.117 514.797C125.072 515.07 124.948 515.373 124.746 515.705C124.544 516.037 124.274 516.356 123.936 516.662C123.604 516.962 123.206 517.212 122.744 517.414C122.288 517.609 121.774 517.707 121.201 517.707C120.485 517.707 119.857 517.567 119.316 517.287C118.783 517.007 118.366 516.633 118.066 516.164C117.773 515.689 117.627 515.158 117.627 514.572C117.627 514.006 117.738 513.508 117.959 513.078C118.18 512.642 118.499 512.281 118.916 511.994C119.333 511.701 119.834 511.48 120.42 511.33C121.006 511.18 121.66 511.105 122.383 511.105H124.482ZM130.615 509.045V517.512H128.799V506.945H130.518L130.615 509.045ZM130.244 511.828L129.404 511.799C129.411 511.076 129.505 510.409 129.688 509.797C129.87 509.178 130.14 508.641 130.498 508.186C130.856 507.73 131.302 507.378 131.836 507.131C132.37 506.877 132.988 506.75 133.691 506.75C134.186 506.75 134.642 506.822 135.059 506.965C135.475 507.102 135.837 507.32 136.143 507.619C136.449 507.919 136.686 508.303 136.855 508.771C137.025 509.24 137.109 509.807 137.109 510.471V517.512H135.303V510.559C135.303 510.005 135.208 509.562 135.02 509.23C134.837 508.898 134.577 508.658 134.238 508.508C133.9 508.352 133.503 508.273 133.047 508.273C132.513 508.273 132.067 508.368 131.709 508.557C131.351 508.745 131.064 509.006 130.85 509.338C130.635 509.67 130.479 510.051 130.381 510.48C130.29 510.904 130.244 511.353 130.244 511.828ZM137.09 510.832L135.879 511.203C135.885 510.624 135.98 510.067 136.162 509.533C136.351 508.999 136.621 508.524 136.973 508.107C137.331 507.691 137.77 507.362 138.291 507.121C138.812 506.874 139.408 506.75 140.078 506.75C140.645 506.75 141.146 506.825 141.582 506.975C142.025 507.124 142.396 507.355 142.695 507.668C143.001 507.974 143.232 508.368 143.389 508.85C143.545 509.331 143.623 509.904 143.623 510.568V517.512H141.807V510.549C141.807 509.956 141.712 509.497 141.523 509.172C141.341 508.84 141.081 508.609 140.742 508.479C140.41 508.342 140.013 508.273 139.551 508.273C139.154 508.273 138.802 508.342 138.496 508.479C138.19 508.615 137.933 508.804 137.725 509.045C137.516 509.279 137.357 509.549 137.246 509.855C137.142 510.161 137.09 510.487 137.09 510.832ZM151.25 511.828V511.73C151.25 510.311 151.41 509.029 151.729 507.883C152.048 506.73 152.454 505.721 152.949 504.855C153.444 503.99 153.965 503.273 154.512 502.707C155.059 502.134 155.563 501.721 156.025 501.467L156.406 502.658C156.022 502.951 155.632 503.355 155.234 503.869C154.844 504.383 154.482 505.015 154.15 505.764C153.825 506.512 153.561 507.382 153.359 508.371C153.158 509.361 153.057 510.474 153.057 511.711V511.848C153.057 513.085 153.158 514.201 153.359 515.197C153.561 516.187 153.825 517.059 154.15 517.814C154.482 518.57 154.844 519.211 155.234 519.738C155.632 520.272 156.022 520.695 156.406 521.008L156.025 522.102C155.563 521.848 155.059 521.434 154.512 520.861C153.965 520.295 153.444 519.579 152.949 518.713C152.454 517.854 152.048 516.848 151.729 515.695C151.41 514.543 151.25 513.254 151.25 511.828ZM163.916 503.215V517.512H162.109V505.471L158.467 506.799V505.168L163.633 503.215H163.916ZM178.154 509.27V511.438C178.154 512.603 178.05 513.586 177.842 514.387C177.633 515.188 177.334 515.832 176.943 516.32C176.553 516.809 176.081 517.163 175.527 517.385C174.98 517.6 174.362 517.707 173.672 517.707C173.125 517.707 172.62 517.639 172.158 517.502C171.696 517.365 171.279 517.147 170.908 516.848C170.544 516.542 170.231 516.145 169.971 515.656C169.71 515.168 169.512 514.576 169.375 513.879C169.238 513.182 169.17 512.368 169.17 511.438V509.27C169.17 508.104 169.274 507.128 169.482 506.34C169.697 505.552 170 504.921 170.391 504.445C170.781 503.964 171.25 503.618 171.797 503.41C172.35 503.202 172.969 503.098 173.652 503.098C174.206 503.098 174.714 503.166 175.176 503.303C175.645 503.433 176.061 503.645 176.426 503.938C176.79 504.224 177.1 504.608 177.354 505.09C177.614 505.565 177.812 506.148 177.949 506.838C178.086 507.528 178.154 508.339 178.154 509.27ZM176.338 511.73V508.967C176.338 508.329 176.299 507.769 176.221 507.287C176.149 506.799 176.042 506.382 175.898 506.037C175.755 505.692 175.573 505.412 175.352 505.197C175.137 504.982 174.886 504.826 174.6 504.729C174.32 504.624 174.004 504.572 173.652 504.572C173.223 504.572 172.842 504.654 172.51 504.816C172.178 504.973 171.898 505.223 171.67 505.568C171.449 505.913 171.279 506.366 171.162 506.926C171.045 507.486 170.986 508.166 170.986 508.967V511.73C170.986 512.368 171.022 512.932 171.094 513.42C171.172 513.908 171.286 514.331 171.436 514.689C171.585 515.041 171.768 515.331 171.982 515.559C172.197 515.786 172.445 515.956 172.725 516.066C173.011 516.171 173.327 516.223 173.672 516.223C174.115 516.223 174.502 516.138 174.834 515.969C175.166 515.799 175.443 515.536 175.664 515.178C175.892 514.813 176.061 514.348 176.172 513.781C176.283 513.208 176.338 512.525 176.338 511.73ZM180.322 506.779V506.027C180.322 505.487 180.439 504.995 180.674 504.553C180.908 504.11 181.243 503.755 181.68 503.488C182.116 503.221 182.633 503.088 183.232 503.088C183.844 503.088 184.365 503.221 184.795 503.488C185.231 503.755 185.566 504.11 185.801 504.553C186.035 504.995 186.152 505.487 186.152 506.027V506.779C186.152 507.307 186.035 507.792 185.801 508.234C185.573 508.677 185.241 509.032 184.805 509.299C184.375 509.566 183.857 509.699 183.252 509.699C182.646 509.699 182.122 509.566 181.68 509.299C181.243 509.032 180.908 508.677 180.674 508.234C180.439 507.792 180.322 507.307 180.322 506.779ZM181.68 506.027V506.779C181.68 507.079 181.735 507.362 181.846 507.629C181.963 507.896 182.139 508.114 182.373 508.283C182.607 508.446 182.9 508.527 183.252 508.527C183.604 508.527 183.893 508.446 184.121 508.283C184.349 508.114 184.518 507.896 184.629 507.629C184.74 507.362 184.795 507.079 184.795 506.779V506.027C184.795 505.721 184.736 505.435 184.619 505.168C184.508 504.895 184.336 504.676 184.102 504.514C183.874 504.344 183.584 504.26 183.232 504.26C182.887 504.26 182.598 504.344 182.363 504.514C182.135 504.676 181.963 504.895 181.846 505.168C181.735 505.435 181.68 505.721 181.68 506.027ZM187.246 514.787V514.025C187.246 513.492 187.363 513.003 187.598 512.561C187.832 512.118 188.167 511.763 188.604 511.496C189.04 511.229 189.557 511.096 190.156 511.096C190.768 511.096 191.289 511.229 191.719 511.496C192.155 511.763 192.49 512.118 192.725 512.561C192.959 513.003 193.076 513.492 193.076 514.025V514.787C193.076 515.321 192.959 515.809 192.725 516.252C192.497 516.695 192.165 517.049 191.729 517.316C191.299 517.583 190.781 517.717 190.176 517.717C189.57 517.717 189.049 517.583 188.613 517.316C188.177 517.049 187.839 516.695 187.598 516.252C187.363 515.809 187.246 515.321 187.246 514.787ZM188.604 514.025V514.787C188.604 515.087 188.659 515.373 188.77 515.646C188.887 515.913 189.062 516.132 189.297 516.301C189.531 516.464 189.824 516.545 190.176 516.545C190.527 516.545 190.817 516.464 191.045 516.301C191.279 516.132 191.452 515.913 191.562 515.646C191.673 515.38 191.729 515.093 191.729 514.787V514.025C191.729 513.719 191.67 513.433 191.553 513.166C191.442 512.899 191.27 512.684 191.035 512.521C190.807 512.352 190.514 512.268 190.156 512.268C189.811 512.268 189.521 512.352 189.287 512.521C189.059 512.684 188.887 512.899 188.77 513.166C188.659 513.433 188.604 513.719 188.604 514.025ZM190.605 505.314L183.662 516.428L182.646 515.783L189.59 504.67L190.605 505.314ZM199.482 511.73V511.828C199.482 513.254 199.323 514.543 199.004 515.695C198.685 516.848 198.278 517.854 197.783 518.713C197.288 519.579 196.768 520.295 196.221 520.861C195.674 521.434 195.169 521.848 194.707 522.102L194.326 521.008C194.71 520.715 195.098 520.305 195.488 519.777C195.879 519.257 196.24 518.612 196.572 517.844C196.904 517.082 197.171 516.203 197.373 515.207C197.575 514.204 197.676 513.085 197.676 511.848V511.711C197.676 510.474 197.568 509.357 197.354 508.361C197.139 507.359 196.859 506.477 196.514 505.715C196.175 504.953 195.811 504.312 195.42 503.791C195.036 503.264 194.671 502.857 194.326 502.57L194.707 501.467C195.169 501.721 195.674 502.134 196.221 502.707C196.768 503.273 197.288 503.99 197.783 504.855C198.278 505.721 198.685 506.73 199.004 507.883C199.323 509.029 199.482 510.311 199.482 511.73Z" fill="#FFFDF0" fill-opacity="0.8"/>
<rect x="56" y="530.512" width="23" height="23" rx="11.5" fill="#B44957"/>
<path d="M100.498 549.512H97.5293L97.5488 547.979H100.498C101.514 547.979 102.36 547.767 103.037 547.344C103.714 546.914 104.222 546.315 104.561 545.547C104.906 544.772 105.078 543.867 105.078 542.832V541.963C105.078 541.149 104.98 540.426 104.785 539.795C104.59 539.157 104.303 538.62 103.926 538.184C103.548 537.741 103.086 537.406 102.539 537.178C101.999 536.95 101.377 536.836 100.674 536.836H97.4707V535.293H100.674C101.605 535.293 102.454 535.449 103.223 535.762C103.991 536.068 104.652 536.514 105.205 537.1C105.765 537.679 106.195 538.382 106.494 539.209C106.794 540.029 106.943 540.954 106.943 541.982V542.832C106.943 543.861 106.794 544.788 106.494 545.615C106.195 546.436 105.762 547.135 105.195 547.715C104.635 548.294 103.958 548.74 103.164 549.053C102.376 549.359 101.488 549.512 100.498 549.512ZM98.5352 535.293V549.512H96.6504V535.293H98.5352ZM113.887 549.707C113.151 549.707 112.484 549.583 111.885 549.336C111.292 549.082 110.781 548.727 110.352 548.271C109.928 547.816 109.603 547.275 109.375 546.65C109.147 546.025 109.033 545.342 109.033 544.6V544.189C109.033 543.33 109.16 542.565 109.414 541.895C109.668 541.217 110.013 540.645 110.449 540.176C110.885 539.707 111.38 539.352 111.934 539.111C112.487 538.87 113.06 538.75 113.652 538.75C114.408 538.75 115.059 538.88 115.605 539.141C116.159 539.401 116.611 539.766 116.963 540.234C117.314 540.697 117.575 541.243 117.744 541.875C117.913 542.5 117.998 543.184 117.998 543.926V544.736H110.107V543.262H116.191V543.125C116.165 542.656 116.068 542.201 115.898 541.758C115.736 541.315 115.475 540.951 115.117 540.664C114.759 540.378 114.271 540.234 113.652 540.234C113.242 540.234 112.865 540.322 112.52 540.498C112.174 540.667 111.878 540.921 111.631 541.26C111.383 541.598 111.191 542.012 111.055 542.5C110.918 542.988 110.85 543.551 110.85 544.189V544.6C110.85 545.101 110.918 545.573 111.055 546.016C111.198 546.452 111.403 546.836 111.67 547.168C111.943 547.5 112.272 547.76 112.656 547.949C113.047 548.138 113.49 548.232 113.984 548.232C114.622 548.232 115.163 548.102 115.605 547.842C116.048 547.581 116.436 547.233 116.768 546.797L117.861 547.666C117.633 548.011 117.344 548.34 116.992 548.652C116.641 548.965 116.208 549.219 115.693 549.414C115.186 549.609 114.583 549.707 113.887 549.707ZM123.184 547.881L126.074 538.945H127.92L124.121 549.512H122.91L123.184 547.881ZM120.771 538.945L123.75 547.93L123.955 549.512H122.744L118.916 538.945H120.771ZM133.906 549.707C133.171 549.707 132.503 549.583 131.904 549.336C131.312 549.082 130.801 548.727 130.371 548.271C129.948 547.816 129.622 547.275 129.395 546.65C129.167 546.025 129.053 545.342 129.053 544.6V544.189C129.053 543.33 129.18 542.565 129.434 541.895C129.688 541.217 130.033 540.645 130.469 540.176C130.905 539.707 131.4 539.352 131.953 539.111C132.507 538.87 133.079 538.75 133.672 538.75C134.427 538.75 135.078 538.88 135.625 539.141C136.178 539.401 136.631 539.766 136.982 540.234C137.334 540.697 137.594 541.243 137.764 541.875C137.933 542.5 138.018 543.184 138.018 543.926V544.736H130.127V543.262H136.211V543.125C136.185 542.656 136.087 542.201 135.918 541.758C135.755 541.315 135.495 540.951 135.137 540.664C134.779 540.378 134.29 540.234 133.672 540.234C133.262 540.234 132.884 540.322 132.539 540.498C132.194 540.667 131.898 540.921 131.65 541.26C131.403 541.598 131.211 542.012 131.074 542.5C130.938 542.988 130.869 543.551 130.869 544.189V544.6C130.869 545.101 130.938 545.573 131.074 546.016C131.217 546.452 131.423 546.836 131.689 547.168C131.963 547.5 132.292 547.76 132.676 547.949C133.066 548.138 133.509 548.232 134.004 548.232C134.642 548.232 135.182 548.102 135.625 547.842C136.068 547.581 136.455 547.233 136.787 546.797L137.881 547.666C137.653 548.011 137.363 548.34 137.012 548.652C136.66 548.965 136.227 549.219 135.713 549.414C135.205 549.609 134.603 549.707 133.906 549.707ZM142.09 534.512V549.512H140.273V534.512H142.09ZM144.512 544.346V544.121C144.512 543.359 144.622 542.653 144.844 542.002C145.065 541.344 145.384 540.775 145.801 540.293C146.217 539.805 146.722 539.427 147.314 539.16C147.907 538.887 148.571 538.75 149.307 538.75C150.049 538.75 150.716 538.887 151.309 539.16C151.908 539.427 152.415 539.805 152.832 540.293C153.255 540.775 153.577 541.344 153.799 542.002C154.02 542.653 154.131 543.359 154.131 544.121V544.346C154.131 545.107 154.02 545.814 153.799 546.465C153.577 547.116 153.255 547.686 152.832 548.174C152.415 548.656 151.911 549.033 151.318 549.307C150.732 549.574 150.068 549.707 149.326 549.707C148.584 549.707 147.917 549.574 147.324 549.307C146.732 549.033 146.224 548.656 145.801 548.174C145.384 547.686 145.065 547.116 144.844 546.465C144.622 545.814 144.512 545.107 144.512 544.346ZM146.318 544.121V544.346C146.318 544.873 146.38 545.371 146.504 545.84C146.628 546.302 146.813 546.712 147.061 547.07C147.314 547.428 147.63 547.712 148.008 547.92C148.385 548.122 148.825 548.223 149.326 548.223C149.821 548.223 150.254 548.122 150.625 547.92C151.003 547.712 151.315 547.428 151.562 547.07C151.81 546.712 151.995 546.302 152.119 545.84C152.249 545.371 152.314 544.873 152.314 544.346V544.121C152.314 543.6 152.249 543.109 152.119 542.646C151.995 542.178 151.807 541.764 151.553 541.406C151.305 541.042 150.993 540.755 150.615 540.547C150.244 540.339 149.808 540.234 149.307 540.234C148.812 540.234 148.376 540.339 147.998 540.547C147.627 540.755 147.314 541.042 147.061 541.406C146.813 541.764 146.628 542.178 146.504 542.646C146.38 543.109 146.318 543.6 146.318 544.121ZM158.203 540.977V553.574H156.387V538.945H158.047L158.203 540.977ZM165.322 544.141V544.346C165.322 545.114 165.231 545.827 165.049 546.484C164.867 547.135 164.6 547.702 164.248 548.184C163.903 548.665 163.477 549.04 162.969 549.307C162.461 549.574 161.878 549.707 161.221 549.707C160.55 549.707 159.958 549.596 159.443 549.375C158.929 549.154 158.493 548.831 158.135 548.408C157.777 547.985 157.49 547.477 157.275 546.885C157.067 546.292 156.924 545.625 156.846 544.883V543.789C156.924 543.008 157.07 542.308 157.285 541.689C157.5 541.071 157.783 540.544 158.135 540.107C158.493 539.665 158.926 539.329 159.434 539.102C159.941 538.867 160.527 538.75 161.191 538.75C161.855 538.75 162.445 538.88 162.959 539.141C163.473 539.395 163.906 539.759 164.258 540.234C164.609 540.71 164.873 541.279 165.049 541.943C165.231 542.601 165.322 543.333 165.322 544.141ZM163.506 544.346V544.141C163.506 543.613 163.451 543.118 163.34 542.656C163.229 542.188 163.057 541.777 162.822 541.426C162.594 541.068 162.301 540.788 161.943 540.586C161.585 540.378 161.159 540.273 160.664 540.273C160.208 540.273 159.811 540.352 159.473 540.508C159.141 540.664 158.857 540.876 158.623 541.143C158.389 541.403 158.197 541.702 158.047 542.041C157.904 542.373 157.796 542.718 157.725 543.076V545.605C157.855 546.061 158.037 546.491 158.271 546.895C158.506 547.292 158.818 547.614 159.209 547.861C159.6 548.102 160.091 548.223 160.684 548.223C161.172 548.223 161.592 548.122 161.943 547.92C162.301 547.712 162.594 547.428 162.822 547.07C163.057 546.712 163.229 546.302 163.34 545.84C163.451 545.371 163.506 544.873 163.506 544.346ZM169.424 541.045V549.512H167.607V538.945H169.326L169.424 541.045ZM169.053 543.828L168.213 543.799C168.219 543.076 168.314 542.409 168.496 541.797C168.678 541.178 168.949 540.641 169.307 540.186C169.665 539.73 170.111 539.378 170.645 539.131C171.178 538.877 171.797 538.75 172.5 538.75C172.995 538.75 173.451 538.822 173.867 538.965C174.284 539.102 174.645 539.32 174.951 539.619C175.257 539.919 175.495 540.303 175.664 540.771C175.833 541.24 175.918 541.807 175.918 542.471V549.512H174.111V542.559C174.111 542.005 174.017 541.562 173.828 541.23C173.646 540.898 173.385 540.658 173.047 540.508C172.708 540.352 172.311 540.273 171.855 540.273C171.322 540.273 170.876 540.368 170.518 540.557C170.16 540.745 169.873 541.006 169.658 541.338C169.443 541.67 169.287 542.051 169.189 542.48C169.098 542.904 169.053 543.353 169.053 543.828ZM175.898 542.832L174.688 543.203C174.694 542.624 174.788 542.067 174.971 541.533C175.16 540.999 175.43 540.524 175.781 540.107C176.139 539.691 176.579 539.362 177.1 539.121C177.62 538.874 178.216 538.75 178.887 538.75C179.453 538.75 179.954 538.825 180.391 538.975C180.833 539.124 181.204 539.355 181.504 539.668C181.81 539.974 182.041 540.368 182.197 540.85C182.354 541.331 182.432 541.904 182.432 542.568V549.512H180.615V542.549C180.615 541.956 180.521 541.497 180.332 541.172C180.15 540.84 179.889 540.609 179.551 540.479C179.219 540.342 178.822 540.273 178.359 540.273C177.962 540.273 177.611 540.342 177.305 540.479C176.999 540.615 176.742 540.804 176.533 541.045C176.325 541.279 176.165 541.549 176.055 541.855C175.951 542.161 175.898 542.487 175.898 542.832ZM189.551 549.707C188.815 549.707 188.148 549.583 187.549 549.336C186.956 549.082 186.445 548.727 186.016 548.271C185.592 547.816 185.267 547.275 185.039 546.65C184.811 546.025 184.697 545.342 184.697 544.6V544.189C184.697 543.33 184.824 542.565 185.078 541.895C185.332 541.217 185.677 540.645 186.113 540.176C186.549 539.707 187.044 539.352 187.598 539.111C188.151 538.87 188.724 538.75 189.316 538.75C190.072 538.75 190.723 538.88 191.27 539.141C191.823 539.401 192.275 539.766 192.627 540.234C192.979 540.697 193.239 541.243 193.408 541.875C193.577 542.5 193.662 543.184 193.662 543.926V544.736H185.771V543.262H191.855V543.125C191.829 542.656 191.732 542.201 191.562 541.758C191.4 541.315 191.139 540.951 190.781 540.664C190.423 540.378 189.935 540.234 189.316 540.234C188.906 540.234 188.529 540.322 188.184 540.498C187.839 540.667 187.542 540.921 187.295 541.26C187.048 541.598 186.855 542.012 186.719 542.5C186.582 542.988 186.514 543.551 186.514 544.189V544.6C186.514 545.101 186.582 545.573 186.719 546.016C186.862 546.452 187.067 546.836 187.334 547.168C187.607 547.5 187.936 547.76 188.32 547.949C188.711 548.138 189.154 548.232 189.648 548.232C190.286 548.232 190.827 548.102 191.27 547.842C191.712 547.581 192.1 547.233 192.432 546.797L193.525 547.666C193.298 548.011 193.008 548.34 192.656 548.652C192.305 548.965 191.872 549.219 191.357 549.414C190.85 549.609 190.247 549.707 189.551 549.707ZM197.578 541.201V549.512H195.771V538.945H197.48L197.578 541.201ZM197.148 543.828L196.396 543.799C196.403 543.076 196.51 542.409 196.719 541.797C196.927 541.178 197.22 540.641 197.598 540.186C197.975 539.73 198.424 539.378 198.945 539.131C199.473 538.877 200.055 538.75 200.693 538.75C201.214 538.75 201.683 538.822 202.1 538.965C202.516 539.102 202.871 539.323 203.164 539.629C203.464 539.935 203.691 540.332 203.848 540.82C204.004 541.302 204.082 541.891 204.082 542.588V549.512H202.266V542.568C202.266 542.015 202.184 541.572 202.021 541.24C201.859 540.902 201.621 540.658 201.309 540.508C200.996 540.352 200.612 540.273 200.156 540.273C199.707 540.273 199.297 540.368 198.926 540.557C198.561 540.745 198.245 541.006 197.979 541.338C197.718 541.67 197.513 542.051 197.363 542.48C197.22 542.904 197.148 543.353 197.148 543.828ZM211.25 538.945V540.332H205.537V538.945H211.25ZM207.471 536.377H209.277V546.895C209.277 547.253 209.333 547.523 209.443 547.705C209.554 547.887 209.697 548.008 209.873 548.066C210.049 548.125 210.238 548.154 210.439 548.154C210.589 548.154 210.745 548.141 210.908 548.115C211.077 548.083 211.204 548.057 211.289 548.037L211.299 549.512C211.156 549.557 210.967 549.6 210.732 549.639C210.505 549.684 210.228 549.707 209.902 549.707C209.46 549.707 209.053 549.619 208.682 549.443C208.311 549.268 208.014 548.975 207.793 548.564C207.578 548.148 207.471 547.588 207.471 546.885V536.377ZM213.301 543.828V543.73C213.301 542.311 213.46 541.029 213.779 539.883C214.098 538.73 214.505 537.721 215 536.855C215.495 535.99 216.016 535.273 216.562 534.707C217.109 534.134 217.614 533.721 218.076 533.467L218.457 534.658C218.073 534.951 217.682 535.355 217.285 535.869C216.895 536.383 216.533 537.015 216.201 537.764C215.876 538.512 215.612 539.382 215.41 540.371C215.208 541.361 215.107 542.474 215.107 543.711V543.848C215.107 545.085 215.208 546.201 215.41 547.197C215.612 548.187 215.876 549.059 216.201 549.814C216.533 550.57 216.895 551.211 217.285 551.738C217.682 552.272 218.073 552.695 218.457 553.008L218.076 554.102C217.614 553.848 217.109 553.434 216.562 552.861C216.016 552.295 215.495 551.579 215 550.713C214.505 549.854 214.098 548.848 213.779 547.695C213.46 546.543 213.301 545.254 213.301 543.828ZM225.967 535.215V549.512H224.16V537.471L220.518 538.799V537.168L225.684 535.215H225.967ZM240.205 541.27V543.438C240.205 544.603 240.101 545.586 239.893 546.387C239.684 547.188 239.385 547.832 238.994 548.32C238.604 548.809 238.132 549.163 237.578 549.385C237.031 549.6 236.413 549.707 235.723 549.707C235.176 549.707 234.671 549.639 234.209 549.502C233.747 549.365 233.33 549.147 232.959 548.848C232.594 548.542 232.282 548.145 232.021 547.656C231.761 547.168 231.562 546.576 231.426 545.879C231.289 545.182 231.221 544.368 231.221 543.438V541.27C231.221 540.104 231.325 539.128 231.533 538.34C231.748 537.552 232.051 536.921 232.441 536.445C232.832 535.964 233.301 535.618 233.848 535.41C234.401 535.202 235.02 535.098 235.703 535.098C236.257 535.098 236.764 535.166 237.227 535.303C237.695 535.433 238.112 535.645 238.477 535.938C238.841 536.224 239.15 536.608 239.404 537.09C239.665 537.565 239.863 538.148 240 538.838C240.137 539.528 240.205 540.339 240.205 541.27ZM238.389 543.73V540.967C238.389 540.329 238.35 539.769 238.271 539.287C238.2 538.799 238.092 538.382 237.949 538.037C237.806 537.692 237.624 537.412 237.402 537.197C237.188 536.982 236.937 536.826 236.65 536.729C236.37 536.624 236.055 536.572 235.703 536.572C235.273 536.572 234.893 536.654 234.561 536.816C234.229 536.973 233.949 537.223 233.721 537.568C233.499 537.913 233.33 538.366 233.213 538.926C233.096 539.486 233.037 540.166 233.037 540.967V543.73C233.037 544.368 233.073 544.932 233.145 545.42C233.223 545.908 233.337 546.331 233.486 546.689C233.636 547.041 233.818 547.331 234.033 547.559C234.248 547.786 234.495 547.956 234.775 548.066C235.062 548.171 235.378 548.223 235.723 548.223C236.165 548.223 236.553 548.138 236.885 547.969C237.217 547.799 237.493 547.536 237.715 547.178C237.943 546.813 238.112 546.348 238.223 545.781C238.333 545.208 238.389 544.525 238.389 543.73ZM242.373 538.779V538.027C242.373 537.487 242.49 536.995 242.725 536.553C242.959 536.11 243.294 535.755 243.73 535.488C244.167 535.221 244.684 535.088 245.283 535.088C245.895 535.088 246.416 535.221 246.846 535.488C247.282 535.755 247.617 536.11 247.852 536.553C248.086 536.995 248.203 537.487 248.203 538.027V538.779C248.203 539.307 248.086 539.792 247.852 540.234C247.624 540.677 247.292 541.032 246.855 541.299C246.426 541.566 245.908 541.699 245.303 541.699C244.697 541.699 244.173 541.566 243.73 541.299C243.294 541.032 242.959 540.677 242.725 540.234C242.49 539.792 242.373 539.307 242.373 538.779ZM243.73 538.027V538.779C243.73 539.079 243.786 539.362 243.896 539.629C244.014 539.896 244.189 540.114 244.424 540.283C244.658 540.446 244.951 540.527 245.303 540.527C245.654 540.527 245.944 540.446 246.172 540.283C246.4 540.114 246.569 539.896 246.68 539.629C246.79 539.362 246.846 539.079 246.846 538.779V538.027C246.846 537.721 246.787 537.435 246.67 537.168C246.559 536.895 246.387 536.676 246.152 536.514C245.924 536.344 245.635 536.26 245.283 536.26C244.938 536.26 244.648 536.344 244.414 536.514C244.186 536.676 244.014 536.895 243.896 537.168C243.786 537.435 243.73 537.721 243.73 538.027ZM249.297 546.787V546.025C249.297 545.492 249.414 545.003 249.648 544.561C249.883 544.118 250.218 543.763 250.654 543.496C251.09 543.229 251.608 543.096 252.207 543.096C252.819 543.096 253.34 543.229 253.77 543.496C254.206 543.763 254.541 544.118 254.775 544.561C255.01 545.003 255.127 545.492 255.127 546.025V546.787C255.127 547.321 255.01 547.809 254.775 548.252C254.548 548.695 254.215 549.049 253.779 549.316C253.35 549.583 252.832 549.717 252.227 549.717C251.621 549.717 251.1 549.583 250.664 549.316C250.228 549.049 249.889 548.695 249.648 548.252C249.414 547.809 249.297 547.321 249.297 546.787ZM250.654 546.025V546.787C250.654 547.087 250.71 547.373 250.82 547.646C250.938 547.913 251.113 548.132 251.348 548.301C251.582 548.464 251.875 548.545 252.227 548.545C252.578 548.545 252.868 548.464 253.096 548.301C253.33 548.132 253.503 547.913 253.613 547.646C253.724 547.38 253.779 547.093 253.779 546.787V546.025C253.779 545.719 253.721 545.433 253.604 545.166C253.493 544.899 253.32 544.684 253.086 544.521C252.858 544.352 252.565 544.268 252.207 544.268C251.862 544.268 251.572 544.352 251.338 544.521C251.11 544.684 250.938 544.899 250.82 545.166C250.71 545.433 250.654 545.719 250.654 546.025ZM252.656 537.314L245.713 548.428L244.697 547.783L251.641 536.67L252.656 537.314ZM261.533 543.73V543.828C261.533 545.254 261.374 546.543 261.055 547.695C260.736 548.848 260.329 549.854 259.834 550.713C259.339 551.579 258.818 552.295 258.271 552.861C257.725 553.434 257.22 553.848 256.758 554.102L256.377 553.008C256.761 552.715 257.148 552.305 257.539 551.777C257.93 551.257 258.291 550.612 258.623 549.844C258.955 549.082 259.222 548.203 259.424 547.207C259.626 546.204 259.727 545.085 259.727 543.848V543.711C259.727 542.474 259.619 541.357 259.404 540.361C259.189 539.359 258.91 538.477 258.564 537.715C258.226 536.953 257.861 536.312 257.471 535.791C257.087 535.264 256.722 534.857 256.377 534.57L256.758 533.467C257.22 533.721 257.725 534.134 258.271 534.707C258.818 535.273 259.339 535.99 259.834 536.855C260.329 537.721 260.736 538.73 261.055 539.883C261.374 541.029 261.533 542.311 261.533 543.73Z" fill="#FFFDF0" fill-opacity="0.8"/>
</svg>
